#!OML:ASF H:\Terrain\Patient Classification 1\Animal1\Tuesday\Animal1.ASF
:FULLY-SPECIFIED
:DEGREES
934
root 15.0293 16.4507 -14.9614 5.72755 -12.0122 4.09212
lowerback 2.29842 -3.60618 -1.29056
upperback -5.64911 -4.78094 2.54519
thorax -6.85267 -2.22529 3.76509
lowerneck 5.35442 -6.16038 -7.62376
upperneck 21.7818 -7.31762 -8.06999
head 5.78003 -4.74043 -1.55827
rclavicle 3.1408e-014 -1.59028e-015
rhumerus -46.9457 -11.5732 -63.458
rradius 26.4276
rwrist 1.47355
rhand -16.6876 21.1996
rfingers 7.12502
rthumb 9.53678 -8.56456
lclavicle 3.1408e-014 -1.59028e-015
lhumerus -40.4109 7.95366 84.2275
lradius 47.2876
lwrist -25.2277
lhand 7.99979 47.4059
lfingers 7.12502
lthumb 33.2268 74.358
rfemur -29.8229 7.24317 10.8801
rtibia 35.9948
rfoot -14.8374 -27.158
rtoes 23.7738
lfemur -6.96759 -17.2582 -26.7755
ltibia 11.4778
lfoot -14.7592 29.2067
ltoes 21.5594
935
root 14.9866 16.4604 -14.9501 5.92316 -12.1606 4.07858
lowerback 2.03849 -3.5125 -1.15349
upperback -5.72404 -4.64898 2.5037
thorax -6.80538 -2.16978 3.62026
lowerneck 5.46204 -6.27435 -7.39833
upperneck 21.7783 -7.45294 -8.27595
head 5.74014 -4.79971 -1.65796
rclavicle -2.03257e-014 1.27222e-014
rhumerus -47.1348 -11.6739 -63.4339
rradius 26.5601
rwrist 1.143
rhand -16.6947 21.9406
rfingers 7.12502
rthumb 9.52989 -7.82391
lclavicle -2.03257e-014 1.27222e-014
lhumerus -40.6758 8.17359 84.013
lradius 47.4209
lwrist -25.39
lhand 8.3952 47.1941
lfingers 7.12502
lthumb 33.6027 74.0652
rfemur -29.449 7.94641 10.3422
rtibia 35.2074
rfoot -16.2027 -27.2694
rtoes 26.8093
lfemur -6.77644 -17.6009 -26.5672
ltibia 10.8758
lfoot -14.6287 29.6228
ltoes 22.4697
936
root 14.9411 16.4675 -14.9388 6.01817 -12.4239 4.23926
lowerback 1.81944 -3.39219 -1.17656
upperback -5.78163 -4.4976 2.34198
thorax -6.76102 -2.0994 3.44028
lowerneck 5.35983 -6.28477 -7.51405
upperneck 22.0451 -7.48575 -7.99672
head 5.86074 -4.82131 -1.56694
rclavicle 6.63941e-014 -2.70347e-014
rhumerus -47.2583 -11.829 -63.5521
rradius 26.4755
rwrist 0.703845
rhand -16.4102 22.5977
rfingers 7.12502
rthumb 9.80439 -7.15402
lclavicle 6.63941e-014 -2.70347e-014
lhumerus -40.8711 8.10899 83.7178
lradius 47.5291
lwrist -25.4609
lhand 9.13743 46.9564
lfingers 7.12502
lthumb 34.3078 73.6713
rfemur -29.033 8.79974 9.62516
rtibia 34.3486
rfoot -16.7827 -27.9946
rtoes 27.9906
lfemur -6.47011 -17.8899 -26.5756
ltibia 10.2265
lfoot -14.2597 30.1865
ltoes 21.7346
937
root 14.8931 16.47 -14.9314 6.04326 -12.7063 4.27934
lowerback 1.7309 -3.3151 -1.18771
upperback -5.75102 -4.3972 2.29592
thorax -6.68608 -2.05239 3.38345
lowerneck 5.06465 -6.226 -7.50235
upperneck 22.1703 -7.37609 -7.9334
head 5.95194 -4.7733 -1.56015
rclavicle 5.85421e-014 1.59028e-014
rhumerus -47.1026 -12.0788 -63.5297
rradius 26.2331
rwrist 0.779649
rhand -15.8094 22.5275
rfingers 7.12502
rthumb 10.384 -7.19609
lclavicle 5.85421e-014 1.59028e-014
lhumerus -40.784 7.87671 83.5834
lradius 47.53
lwrist -25.1385
lhand 9.01924 47.1381
lfingers 7.12502
lthumb 34.1955 73.8783
rfemur -28.5555 9.89254 9.0465
rtibia 33.485
rfoot -16.7971 -29.4328
rtoes 27.591
lfemur -5.99326 -17.8619 -26.4813
ltibia 9.42955
lfoot -14.1043 30.3129
ltoes 21.8185
938
root 14.8447 16.4749 -14.9207 6.10012 -12.9593 4.19792
lowerback 1.62206 -3.30187 -1.12245
upperback -5.78648 -4.37114 2.38363
thorax -6.66087 -2.04115 3.43105
lowerneck 5.15726 -6.17391 -7.40284
upperneck 22.1153 -7.27131 -8.23958
head 5.90164 -4.73178 -1.66258
rclavicle -1.76421e-014 2.54444e-014
rhumerus -47.0697 -12.1472 -63.2913
rradius 26.1541
rwrist 1.3727
rhand -16.1564 21.6292
rfingers 7.12502
rthumb 10.0493 -8.11087
lclavicle -1.76421e-014 2.54444e-014
lhumerus -40.9767 8.01381 83.4466
lradius 47.5813
lwrist -25.0756
lhand 8.68977 47.4111
lfingers 7.12502
lthumb 33.8826 74.2209
rfemur -28.0654 10.936 8.63199
rtibia 32.6007
rfoot -16.9123 -30.3724
rtoes 28.0717
lfemur -5.55069 -17.8492 -26.2528
ltibia 8.72138
lfoot -14.35 30.2626
ltoes 22.7294
939
root 14.7935 16.4809 -14.9052 6.22997 -13.2551 4.26298
lowerback 1.4313 -3.28918 -1.26634
upperback -6.00523 -4.35889 2.43619
thorax -6.77124 -2.02283 3.56313
lowerneck 5.66319 -6.05896 -7.75041
upperneck 22.1247 -7.20679 -8.04417
head 5.84844 -4.71079 -1.5274
rclavicle -7.9663e-014 -4.77083e-015
rhumerus -47.3847 -11.779 -63.2655
rradius 26.2899
rwrist 1.42883
rhand -16.4364 21.1499
rfingers 7.12502
rthumb 9.77913 -8.60305
lclavicle -7.9663e-014 -4.77083e-015
lhumerus -41.6504 8.46997 83.1176
lradius 47.7057
lwrist -25.4911
lhand 8.44411 47.2064
lfingers 7.12502
lthumb 33.6492 74.0673
rfemur -27.6558 11.9029 8.09231
rtibia 31.6632
rfoot -17.2481 -30.9317
rtoes 28.9218
lfemur -5.33248 -17.822 -26.1536
ltibia 8.27061
lfoot -14.3616 30.4071
ltoes 22.6087
